<svg width="236" height="64" viewBox="0 0 236 64" fill="none" xmlns="http://www.w3.org/2000/svg">
<path fill-rule="evenodd" clip-rule="evenodd" d="M36.0728 24.4971C35.7079 24.1767 35.2389 24 34.7532 24H31C29.8954 24 29 24.8954 29 26V26.3467V27.84V38C29 39.1046 29.8954 40 31 40H48.3333C49.4379 40 50.3333 39.1046 50.3333 38V28.3467C50.3333 27.2421 49.4379 26.3467 48.3333 26.3467H38.9327C38.4471 26.3467 37.978 26.17 37.6131 25.8496L36.0728 24.4971Z" fill="#40A9FF"/>
<path d="M73.8096 35.2139L77.0615 25.2031H79.5049L74.8994 38H72.7461L68.1582 25.2031H70.5928L73.8096 35.2139ZM83.0205 38H80.8848V28.4902H83.0205V38ZM80.7529 26.0205C80.7529 25.6924 80.8555 25.4199 81.0605 25.2031C81.2715 24.9863 81.5703 24.8779 81.957 24.8779C82.3438 24.8779 82.6426 24.9863 82.8535 25.2031C83.0645 25.4199 83.1699 25.6924 83.1699 26.0205C83.1699 26.3428 83.0645 26.6123 82.8535 26.8291C82.6426 27.04 82.3438 27.1455 81.957 27.1455C81.5703 27.1455 81.2715 27.04 81.0605 26.8291C80.8555 26.6123 80.7529 26.3428 80.7529 26.0205ZM90.333 30.4414C90.0518 30.3945 89.7617 30.3711 89.4629 30.3711C88.4844 30.3711 87.8252 30.7461 87.4854 31.4961V38H85.3496V28.4902H87.3887L87.4414 29.5537C87.957 28.7275 88.6719 28.3145 89.5859 28.3145C89.8906 28.3145 90.1426 28.3555 90.3418 28.4375L90.333 30.4414ZM94.7979 26.1787V28.4902H96.4766V30.0723H94.7979V35.3809C94.7979 35.7441 94.8682 36.0078 95.0088 36.1719C95.1553 36.3301 95.4131 36.4092 95.7822 36.4092C96.0283 36.4092 96.2773 36.3799 96.5293 36.3213V37.9736C96.043 38.1084 95.5742 38.1758 95.123 38.1758C93.4824 38.1758 92.6621 37.2705 92.6621 35.46V30.0723H91.0977V28.4902H92.6621V26.1787H94.7979ZM103.877 37.0684C103.25 37.8066 102.359 38.1758 101.205 38.1758C100.174 38.1758 99.3916 37.874 98.8584 37.2705C98.3311 36.667 98.0674 35.7939 98.0674 34.6514V28.4902H100.203V34.625C100.203 35.832 100.704 36.4355 101.706 36.4355C102.743 36.4355 103.443 36.0635 103.807 35.3193V28.4902H105.942V38H103.93L103.877 37.0684ZM113.8 38C113.706 37.8184 113.624 37.5225 113.554 37.1123C112.874 37.8213 112.042 38.1758 111.058 38.1758C110.103 38.1758 109.323 37.9033 108.72 37.3584C108.116 36.8135 107.814 36.1396 107.814 35.3369C107.814 34.3232 108.189 33.5469 108.939 33.0078C109.695 32.4629 110.773 32.1904 112.174 32.1904H113.483V31.5664C113.483 31.0742 113.346 30.6816 113.07 30.3887C112.795 30.0898 112.376 29.9404 111.813 29.9404C111.327 29.9404 110.929 30.0635 110.618 30.3096C110.308 30.5498 110.152 30.8574 110.152 31.2324H108.017C108.017 30.7109 108.189 30.2246 108.535 29.7734C108.881 29.3164 109.35 28.959 109.941 28.7012C110.539 28.4434 111.204 28.3145 111.937 28.3145C113.05 28.3145 113.938 28.5957 114.6 29.1582C115.262 29.7148 115.602 30.5 115.619 31.5137V35.8027C115.619 36.6582 115.739 37.3408 115.979 37.8506V38H113.8ZM111.453 36.4619C111.875 36.4619 112.271 36.3594 112.64 36.1543C113.015 35.9492 113.296 35.6738 113.483 35.3281V33.5352H112.332C111.541 33.5352 110.946 33.6729 110.548 33.9482C110.149 34.2236 109.95 34.6133 109.95 35.1172C109.95 35.5273 110.085 35.8555 110.354 36.1016C110.63 36.3418 110.996 36.4619 111.453 36.4619ZM120.128 38H117.992V24.5H120.128V38ZM127.15 38V25.2031H130.93C132.061 25.2031 133.062 25.4551 133.936 25.959C134.814 26.4629 135.494 27.1777 135.975 28.1035C136.455 29.0293 136.695 30.0898 136.695 31.2852V31.9268C136.695 33.1396 136.452 34.2061 135.966 35.126C135.485 36.0459 134.797 36.7549 133.9 37.2529C133.01 37.751 131.987 38 130.833 38H127.15ZM129.374 26.9961V36.2246H130.824C131.99 36.2246 132.884 35.8613 133.505 35.1348C134.132 34.4023 134.451 33.3535 134.463 31.9883V31.2764C134.463 29.8877 134.161 28.8271 133.558 28.0947C132.954 27.3623 132.078 26.9961 130.93 26.9961H129.374ZM143.683 30.4414C143.401 30.3945 143.111 30.3711 142.812 30.3711C141.834 30.3711 141.175 30.7461 140.835 31.4961V38H138.699V28.4902H140.738L140.791 29.5537C141.307 28.7275 142.021 28.3145 142.936 28.3145C143.24 28.3145 143.492 28.3555 143.691 28.4375L143.683 30.4414ZM147.304 38H145.168V28.4902H147.304V38ZM145.036 26.0205C145.036 25.6924 145.139 25.4199 145.344 25.2031C145.555 24.9863 145.854 24.8779 146.24 24.8779C146.627 24.8779 146.926 24.9863 147.137 25.2031C147.348 25.4199 147.453 25.6924 147.453 26.0205C147.453 26.3428 147.348 26.6123 147.137 26.8291C146.926 27.04 146.627 27.1455 146.24 27.1455C145.854 27.1455 145.555 27.04 145.344 26.8291C145.139 26.6123 145.036 26.3428 145.036 26.0205ZM152.99 35.293L155.003 28.4902H157.209L153.913 38H152.059L148.736 28.4902H150.951L152.99 35.293ZM162.614 38.1758C161.261 38.1758 160.162 37.751 159.318 36.9014C158.48 36.0459 158.062 34.9092 158.062 33.4912V33.2275C158.062 32.2783 158.243 31.4316 158.606 30.6875C158.976 29.9375 159.491 29.3545 160.153 28.9385C160.815 28.5225 161.554 28.3145 162.368 28.3145C163.663 28.3145 164.662 28.7275 165.365 29.5537C166.074 30.3799 166.429 31.5488 166.429 33.0605V33.9219H160.215C160.279 34.707 160.54 35.3281 160.997 35.7852C161.46 36.2422 162.04 36.4707 162.737 36.4707C163.716 36.4707 164.513 36.0752 165.128 35.2842L166.279 36.3828C165.898 36.9512 165.389 37.3936 164.75 37.71C164.117 38.0205 163.405 38.1758 162.614 38.1758ZM162.359 30.0283C161.773 30.0283 161.299 30.2334 160.936 30.6436C160.578 31.0537 160.35 31.625 160.25 32.3574H164.319V32.1992C164.272 31.4844 164.082 30.9453 163.748 30.582C163.414 30.2129 162.951 30.0283 162.359 30.0283Z" fill="#1890FF"/>
</svg>
